<svg width="25" height="24" viewBox="0 0 25 24" fill="none" xmlns="http://www.w3.org/2000/svg">
<g clip-path="url(#clip0_122_2316)">
<path d="M12.8848 0C9.62827 0 9.21877 0.015 7.93927 0.072C6.65977 0.132 5.78827 0.333 5.02477 0.63C4.22391 0.931229 3.4985 1.40374 2.89927 2.0145C2.28888 2.61404 1.81643 3.33936 1.51477 4.14C1.21777 4.902 1.01527 5.775 0.956766 7.05C0.899766 8.3325 0.884766 8.7405 0.884766 12.0015C0.884766 15.2595 0.899766 15.6675 0.956766 16.947C1.01677 18.225 1.21777 19.0965 1.51477 19.86C1.82227 20.649 2.23177 21.318 2.89927 21.9855C3.56527 22.653 4.23427 23.064 5.02327 23.37C5.78827 23.667 6.65827 23.8695 7.93627 23.928C9.21727 23.985 9.62527 24 12.8848 24C16.1443 24 16.5508 23.985 17.8318 23.928C19.1083 23.868 19.9828 23.667 20.7463 23.37C21.5466 23.0686 22.2715 22.5961 22.8703 21.9855C23.5378 21.318 23.9473 20.649 24.2548 19.86C24.5503 19.0965 24.7528 18.225 24.8128 16.947C24.8698 15.6675 24.8848 15.2595 24.8848 12C24.8848 8.7405 24.8698 8.3325 24.8128 7.0515C24.7528 5.775 24.5503 4.902 24.2548 4.14C23.9531 3.33934 23.4807 2.61401 22.8703 2.0145C22.2712 1.40351 21.5458 0.930968 20.7448 0.63C19.9798 0.333 19.1068 0.1305 17.8303 0.072C16.5493 0.015 16.1428 0 12.8818 0H12.8863H12.8848ZM11.8093 2.163H12.8863C16.0903 2.163 16.4698 2.1735 17.7343 2.232C18.9043 2.2845 19.5403 2.481 19.9633 2.6445C20.5228 2.862 20.9233 3.123 21.3433 3.543C21.7633 3.963 22.0228 4.362 22.2403 4.923C22.4053 5.3445 22.6003 5.9805 22.6528 7.1505C22.7113 8.415 22.7233 8.7945 22.7233 11.997C22.7233 15.1995 22.7113 15.5805 22.6528 16.845C22.6003 18.015 22.4038 18.6495 22.2403 19.0725C22.0479 19.5935 21.7408 20.0647 21.3418 20.451C20.9218 20.871 20.5228 21.1305 19.9618 21.348C19.5418 21.513 18.9058 21.708 17.7343 21.762C16.4698 21.819 16.0903 21.8325 12.8863 21.8325C9.68227 21.8325 9.30127 21.819 8.03677 21.762C6.86677 21.708 6.23227 21.513 5.80927 21.348C5.28801 21.1559 4.81645 20.8494 4.42927 20.451C4.02989 20.0641 3.72235 19.5925 3.52927 19.071C3.36577 18.6495 3.16927 18.0135 3.11677 16.8435C3.05977 15.579 3.04777 15.1995 3.04777 11.994C3.04777 8.79 3.05977 8.412 3.11677 7.1475C3.17077 5.9775 3.36577 5.3415 3.53077 4.9185C3.74827 4.359 4.00927 3.9585 4.42927 3.5385C4.84927 3.1185 5.24827 2.859 5.80927 2.6415C6.23227 2.4765 6.86677 2.2815 8.03677 2.2275C9.14377 2.1765 9.57277 2.1615 11.8093 2.16V2.163ZM19.2913 4.155C19.1022 4.155 18.9149 4.19225 18.7402 4.26461C18.5655 4.33698 18.4067 4.44305 18.273 4.57677C18.1393 4.71048 18.0332 4.86923 17.9609 5.04394C17.8885 5.21864 17.8513 5.4059 17.8513 5.595C17.8513 5.7841 17.8885 5.97135 17.9609 6.14606C18.0332 6.32077 18.1393 6.47952 18.273 6.61323C18.4067 6.74695 18.5655 6.85302 18.7402 6.92539C18.9149 6.99775 19.1022 7.035 19.2913 7.035C19.6732 7.035 20.0394 6.88329 20.3095 6.61323C20.5796 6.34318 20.7313 5.97691 20.7313 5.595C20.7313 5.21309 20.5796 4.84682 20.3095 4.57677C20.0394 4.30671 19.6732 4.155 19.2913 4.155ZM12.8863 5.838C12.0689 5.82525 11.2571 5.97523 10.4982 6.27921C9.73936 6.58319 9.04854 7.03511 8.46599 7.60863C7.88344 8.18216 7.42081 8.86585 7.10503 9.61989C6.78924 10.3739 6.62662 11.1833 6.62662 12.0007C6.62662 12.8182 6.78924 13.6276 7.10503 14.3816C7.42081 15.1356 7.88344 15.8193 8.46599 16.3929C9.04854 16.9664 9.73936 17.4183 10.4982 17.7223C11.2571 18.0263 12.0689 18.1763 12.8863 18.1635C14.5041 18.1383 16.0471 17.4779 17.1822 16.3249C18.3174 15.1719 18.9536 13.6188 18.9536 12.0007C18.9536 10.3827 18.3174 8.82962 17.1822 7.67662C16.0471 6.52363 14.5041 5.86324 12.8863 5.838ZM12.8863 7.9995C13.9473 7.9995 14.9648 8.42098 15.715 9.17122C16.4653 9.92146 16.8868 10.939 16.8868 12C16.8868 13.061 16.4653 14.0785 15.715 14.8288C14.9648 15.579 13.9473 16.0005 12.8863 16.0005C11.8253 16.0005 10.8077 15.579 10.0575 14.8288C9.30725 14.0785 8.88577 13.061 8.88577 12C8.88577 10.939 9.30725 9.92146 10.0575 9.17122C10.8077 8.42098 11.8253 7.9995 12.8863 7.9995Z" fill="currentColor"/>
</g>
<defs>
<clipPath id="clip0_122_2316">
<rect width="24" height="24" fill="white" transform="translate(0.884766)"/>
</clipPath>
</defs>
</svg>
