<svg width="25" height="24" viewBox="0 0 25 24" fill="none" xmlns="http://www.w3.org/2000/svg">
<g clip-path="url(#clip0_122_2336)">
<path d="M24.8853 4.50001V19.5C24.8853 20.3513 24.2365 21 23.3853 21H21.8853V7.38676L12.8853 13.8518L3.88525 7.38676V21H2.38525C1.534 21 0.885254 20.3513 0.885254 19.5V4.50001C0.885254 4.07401 1.04575 3.69901 1.315 3.43351C1.45523 3.2932 1.62224 3.18252 1.8061 3.10805C1.98996 3.03358 2.18691 2.99684 2.38525 3.00001H2.8855L12.8853 10.2503L22.885 3.00001H23.3853C23.8113 3.00001 24.1863 3.16051 24.4555 3.43351C24.7248 3.69901 24.8853 4.07401 24.8853 4.50001Z" fill="#FAFAFA"/>
</g>
<defs>
<clipPath id="clip0_122_2336">
<rect width="24" height="24" fill="white" transform="translate(0.885254)"/>
</clipPath>
</defs>
</svg>
