<svg width="22" height="24" viewBox="0 0 22 24" fill="none" xmlns="http://www.w3.org/2000/svg">
<path d="M17.9295 16.7239L17.9295 16.7239C19.7667 14.1592 21.0365 11.2894 21.2255 8.66998C21.4113 6.0948 20.5608 3.76175 18.1182 2.08913L17.9295 16.7239ZM17.9295 16.7239C16.0931 19.2881 13.7664 21.4412 11.3046 22.5148M17.9295 16.7239L11.3046 22.5148M11.3046 22.5148C8.87725 23.5734 6.3292 23.5862 3.88236 21.9111M11.3046 22.5148L3.88236 21.9111M3.88236 21.9111C1.43907 20.2385 0.588543 17.9055 0.774512 15.3301C0.963676 12.7106 2.23384 9.84042 4.07108 7.27503C5.90746 4.71085 8.23408 2.5581 10.6959 1.48482M3.88236 21.9111L10.6959 1.48482M10.6959 1.48482C13.1232 0.426572 15.6712 0.414026 18.1181 2.08908L10.6959 1.48482Z" stroke="#93643B" stroke-width="1.5"/>
<path d="M15.7147 4.5C14.2837 4.7745 10.2433 7.15016 10.1591 11.1728C10.0738 15.1944 7.29597 18.5308 6.28613 19.1244C8.13836 19.1713 11.7575 16.4742 11.8418 12.4516C11.927 8.43004 14.7038 5.09364 15.7147 4.5Z" fill="#93643B"/>
</svg>
