<svg width="24" height="24" viewBox="0 0 24 24" fill="currentColor" xmlns="http://www.w3.org/2000/svg">
<path d="M10.6436 0C9.78525 0 8.96209 0.3415 8.35518 0.949374C7.74827 1.55725 7.40731 2.3817 7.40731 3.24137C7.40731 6.48273 12.9552 9.26105 12.9552 9.26105C12.9552 9.26105 18.503 6.48273 18.503 3.24137C18.503 2.3817 18.162 1.55725 17.5551 0.949374C16.9482 0.3415 16.1251 0 15.2668 0C14.3597 0 13.5423 0.376925 12.9552 0.978893C12.6548 0.669154 12.2955 0.422924 11.8984 0.254781C11.5014 0.0866379 11.0746 1.01594e-06 10.6436 0ZM10.6436 1.85221C11.0171 1.85221 11.3685 2.00039 11.6329 2.27173L12.1267 2.77831H13.7836L14.2774 2.27173C14.4057 2.13879 14.5594 2.03311 14.7294 1.96103C14.8994 1.88895 15.0822 1.85194 15.2668 1.85221C16.0314 1.85221 16.6537 2.47548 16.6537 3.24137C16.6537 4.40918 14.7064 6.09006 12.9552 7.1449C11.203 6.08914 9.25659 4.40918 9.25659 3.24137C9.25659 2.47548 9.87887 1.85221 10.6436 1.85221ZM15.0069 10.1677L13.4933 11.2309L15.9066 14.6788L12.5761 16.9885L10.2247 15.7688L12.7212 14.5102L12.7305 14.5028L12.7397 14.4972C13.1809 14.2361 13.5232 13.8359 13.7131 13.3591C13.903 12.8824 13.9298 12.3561 13.7892 11.8625V11.8606C13.6156 11.2737 13.2184 10.7788 12.6834 10.483C12.1483 10.1871 11.5185 10.1141 10.9302 10.2798H10.9283L4.35229 12.1153L0 15.1103L1.7522 22.2608L6.41701 20.5734L13.0245 24L24 16.3893L22.9487 14.8668L12.8877 21.8431L6.55016 18.5554L3.05687 19.8186L2.10171 15.9142L5.14656 13.8156L11.436 12.0588H11.4397C11.498 12.0398 11.5597 12.033 11.6208 12.0388C11.6819 12.0447 11.7411 12.063 11.7949 12.0927C11.8486 12.1224 11.8957 12.1628 11.9332 12.2115C11.9707 12.2601 11.9979 12.316 12.0129 12.3755C12.0418 12.4735 12.037 12.5783 11.9993 12.6732C11.9616 12.7681 11.8931 12.8475 11.8049 12.8988L7.77531 14.9297L6.15719 15.7438L12.7147 19.1463L18.4882 15.1418L15.0069 10.1677Z" fill="currentColor"/>
</svg>
