<svg width="26" height="26" viewBox="0 0 26 26" fill="none" xmlns="http://www.w3.org/2000/svg">
<path d="M12.997 6.68492C9.50233 6.68492 6.68196 9.50528 6.68196 13C6.68196 16.4946 9.50233 19.315 12.997 19.315C16.4917 19.315 19.312 16.4946 19.312 13C19.312 9.50528 16.4917 6.68492 12.997 6.68492ZM12.997 17.1043C10.737 17.1043 8.89269 15.2599 8.89269 13C8.89269 10.74 10.737 8.89564 12.997 8.89564C15.257 8.89564 17.1013 10.74 17.1013 13C17.1013 15.2599 15.257 17.1043 12.997 17.1043ZM19.5707 4.95452C18.7547 4.95452 18.0958 5.61342 18.0958 6.42936C18.0958 7.2453 18.7547 7.9042 19.5707 7.9042C20.3866 7.9042 21.0455 7.24837 21.0455 6.42936C21.0458 6.23561 21.0078 6.04372 20.9337 5.86467C20.8597 5.68563 20.7511 5.52295 20.6141 5.38595C20.4771 5.24895 20.3144 5.14032 20.1354 5.06629C19.9563 4.99226 19.7644 4.95427 19.5707 4.95452ZM25.3069 13C25.3069 11.3003 25.3223 9.61613 25.2268 7.9196C25.1314 5.94904 24.6818 4.20016 23.2408 2.75919C21.7968 1.31514 20.051 0.86868 18.0804 0.773231C16.3808 0.677782 14.6966 0.693177 13.0001 0.693177C11.3005 0.693177 9.61625 0.677782 7.91972 0.773231C5.94916 0.86868 4.20028 1.31821 2.75931 2.75919C1.31526 4.20324 0.868802 5.94904 0.773353 7.9196C0.677904 9.61921 0.693299 11.3034 0.693299 13C0.693299 14.6965 0.677904 16.3838 0.773353 18.0803C0.868802 20.0509 1.31834 21.7997 2.75931 23.2407C4.20336 24.6848 5.94916 25.1312 7.91972 25.2267C9.61933 25.3221 11.3035 25.3067 13.0001 25.3067C14.6997 25.3067 16.3839 25.3221 18.0804 25.2267C20.051 25.1312 21.7999 24.6817 23.2408 23.2407C24.6849 21.7967 25.1314 20.0509 25.2268 18.0803C25.3253 16.3838 25.3069 14.6996 25.3069 13ZM22.5973 20.2602C22.3726 20.8206 22.1016 21.2394 21.6675 21.6704C21.2333 22.1046 20.8177 22.3755 20.2573 22.6003C18.6377 23.2438 14.7921 23.0991 12.997 23.0991C11.2019 23.0991 7.35318 23.2438 5.73363 22.6034C5.17325 22.3786 4.7545 22.1076 4.32344 21.6735C3.8893 21.2394 3.61835 20.8237 3.39359 20.2633C2.75315 18.6407 2.89787 14.795 2.89787 13C2.89787 11.2049 2.75315 7.35614 3.39359 5.73658C3.61835 5.17621 3.8893 4.75746 4.32344 4.3264C4.75758 3.89534 5.17325 3.62131 5.73363 3.39654C7.35318 2.75611 11.2019 2.90082 12.997 2.90082C14.7921 2.90082 18.6408 2.75611 20.2604 3.39654C20.8207 3.62131 21.2395 3.89226 21.6706 4.3264C22.1047 4.76054 22.3756 5.17621 22.6004 5.73658C23.2408 7.35614 23.0961 11.2049 23.0961 13C23.0961 14.795 23.2408 18.6407 22.5973 20.2602Z" fill="#3F729B"/>
</svg>
