<svg width="20" height="24" viewBox="0 0 20 24" fill="currentColor" xmlns="http://www.w3.org/2000/svg">
<path d="M10.031 0L9.375 0.549835C9.375 0.549835 7.035 2.41849 4.719 5.13636C2.402 7.85325 0 11.4379 0 15.1948C0 17.9009 1.133 20.1551 2.969 21.6764C4.691 23.1019 6.996 23.8738 9.5 23.9697C9.668 23.9775 9.832 24 10 24C10.168 24 10.332 23.9775 10.5 23.9697C13.004 23.8738 15.309 23.1019 17.031 21.6764C18.867 20.1551 20 17.9 20 15.1948C20 11.8126 17.586 8.28861 15.281 5.47193C12.977 2.65623 10.688 0.580164 10.688 0.580164L10.031 0ZM9.97 2.7208C10.49 3.20215 11.853 4.41042 13.72 6.69585C15.914 9.38241 18 12.8067 18 15.1948C18 17.3805 17.133 19.0397 15.719 20.2089C15.375 20.4926 15 20.7519 14.594 20.973C14.84 20.3957 15 19.7696 15 19.1082C15 12.9935 11.656 9.26306 11.656 9.26306L9.844 7.277L9.906 9.93616C9.906 9.93616 9.91 11.1816 9.75 12.382C9.668 12.9818 9.555 13.5786 9.406 13.9112C9.363 14.0061 9.344 14.0179 9.312 14.0638C9.04172 13.9492 8.7976 13.7829 8.594 13.5747C8.258 13.2381 8.031 12.9016 8.031 12.9016L7.062 11.434L6.312 13.0238C6.312 13.0238 5 15.6419 5 19.1082C5 19.7696 5.16 20.3957 5.406 20.973C5.00705 20.7538 4.63035 20.4979 4.281 20.2089C2.867 19.0397 2 17.3814 2 15.1948C2 12.3018 4.098 8.9539 6.281 6.38963C8.133 4.21866 9.446 3.15617 9.97 2.7208ZM11.657 13.0238C12.34 14.4767 13 16.5058 13 19.1082C13 19.8867 12.6839 20.6332 12.1213 21.1836C11.5587 21.7341 10.7956 22.0433 10 22.0433C9.20435 22.0433 8.44129 21.7341 7.87868 21.1836C7.31607 20.6332 7 19.8867 7 19.1082C7 17.5487 7.309 16.2309 7.594 15.2868C8.043 15.6801 8.594 16.0812 9.406 16.0812C9.883 16.0812 10.336 15.8679 10.625 15.592C10.915 15.3171 11.078 14.9923 11.219 14.6753C11.445 14.1587 11.563 13.5854 11.657 13.0238Z" fill="currentColor"/>
</svg>
