<svg width="20" height="21" viewBox="0 0 20 21" fill="none" xmlns="http://www.w3.org/2000/svg">
<path d="M9.99 0.083313C4.47 0.083313 0 4.74998 0 10.5C0 16.25 4.47 20.9166 9.99 20.9166C15.52 20.9166 20 16.25 20 10.5C20 4.74998 15.52 0.083313 9.99 0.083313ZM10 18.8333C5.58 18.8333 2 15.1041 2 10.5C2 5.89581 5.58 2.16665 10 2.16665C14.42 2.16665 18 5.89581 18 10.5C18 15.1041 14.42 18.8333 10 18.8333ZM9.78 5.29165H9.72C9.32 5.29165 9 5.62498 9 6.04165V10.9583C9 11.3229 9.18 11.6666 9.49 11.8541L13.64 14.4479C13.98 14.6562 14.42 14.5521 14.62 14.1979C14.83 13.8437 14.72 13.375 14.37 13.1666L10.5 10.7708V6.04165C10.5 5.62498 10.18 5.29165 9.78 5.29165V5.29165Z" fill="#2B2726"/>
</svg>
