<svg width="26" height="26" viewBox="0 0 26 26" fill="none" xmlns="http://www.w3.org/2000/svg">
<path fill-rule="evenodd" clip-rule="evenodd" d="M21.7212 4.26992C20.5858 3.13248 19.2349 2.23058 17.7468 1.61646C16.2587 1.00234 14.6629 0.688225 13.0519 0.6923C6.29671 0.6923 0.797507 6.16404 0.794776 12.8899C0.794776 15.0395 1.35862 17.1374 2.43034 18.988L0.692383 25.3076L7.18957 23.6106C8.98677 24.5842 11.0002 25.0948 13.0465 25.0957H13.0519C19.8058 25.0957 25.305 19.6239 25.3077 12.8981C25.3124 11.2954 24.9978 9.70768 24.3822 8.22672C23.7666 6.74576 22.8622 5.40092 21.7212 4.26992ZM13.0519 23.0372H13.0478C11.2232 23.0373 9.43217 22.5488 7.86264 21.6227L7.49129 21.4026L3.63585 22.4094L4.66388 18.6687L4.42223 18.2856C3.4021 16.6692 2.86207 14.7987 2.86448 12.8899C2.86722 7.29996 7.43668 2.75218 13.056 2.75218C14.3943 2.74922 15.7199 3.01046 16.9561 3.52077C18.1922 4.03108 19.3144 4.78033 20.2577 5.72516C21.206 6.66548 21.9577 7.78354 22.4692 9.01472C22.9808 10.2459 23.2421 11.5658 23.238 12.8981C23.2353 18.488 18.6658 23.0372 13.0519 23.0372ZM18.6399 15.443C18.3327 15.2895 16.8282 14.553 16.547 14.4511C16.2671 14.3492 16.0637 14.299 15.8589 14.6033C15.6541 14.9077 15.067 15.5939 14.8882 15.7977C14.7093 16.0015 14.5305 16.0259 14.2247 15.8738C13.9189 15.7216 12.9318 15.3995 11.7618 14.3615C10.8512 13.553 10.2368 12.5557 10.058 12.2499C9.8791 11.9442 10.0388 11.7798 10.1931 11.6276C10.331 11.4917 10.4989 11.2716 10.6518 11.0936C10.8047 10.9156 10.8553 10.7893 10.9576 10.5855C11.06 10.3816 11.0095 10.2036 10.9317 10.0515C10.8553 9.89792 10.2423 8.39784 9.98696 7.78776C9.73985 7.1967 9.48728 7.27551 9.29888 7.26735C9.10375 7.25941 8.90847 7.25579 8.71319 7.25648C8.5579 7.26042 8.4051 7.29625 8.26438 7.36172C8.12365 7.42719 7.99804 7.52088 7.89541 7.63694C7.61417 7.94266 6.82369 8.67911 6.82369 10.1792C6.82369 11.6793 7.92134 13.1291 8.07425 13.3329C8.22716 13.5367 10.2341 16.6143 13.3059 17.935C14.0376 18.2489 14.6083 18.4364 15.052 18.5777C15.7851 18.81 16.4528 18.7761 16.9811 18.6986C17.5695 18.6117 18.7928 17.9622 19.0481 17.2502C19.3034 16.5382 19.3034 15.9281 19.2269 15.8004C19.1505 15.6727 18.9443 15.5952 18.6399 15.443Z" fill="#388154"/>
</svg>
