<svg width="24" height="24" viewBox="0 0 24 24" fill="none" xmlns="http://www.w3.org/2000/svg">
<path d="M16.0577 12.6346C16.0577 12.3286 15.9361 12.0351 15.7197 11.8187C15.5034 11.6023 15.2099 11.4808 14.9038 11.4808H9.51923C9.21321 11.4808 8.91973 11.6023 8.70334 11.8187C8.48695 12.0351 8.36538 12.3286 8.36538 12.6346V13.0192C8.36538 14.5354 9.79615 16.0962 12.2115 16.0962C14.6269 16.0962 16.0577 14.5354 16.0577 13.0192V12.6346ZM14.3269 8.59615C14.3269 8.03512 14.1041 7.49706 13.7073 7.10035C13.3106 6.70364 12.7726 6.48077 12.2115 6.48077C11.6505 6.48077 11.1124 6.70364 10.7157 7.10035C10.319 7.49706 10.0962 8.03512 10.0962 8.59615C10.0962 9.15719 10.319 9.69525 10.7157 10.092C11.1124 10.4887 11.6505 10.7115 12.2115 10.7115C12.7726 10.7115 13.3106 10.4887 13.7073 10.092C14.1041 9.69525 14.3269 9.15719 14.3269 8.59615ZM19.1346 19.9423H5.35385C5.43342 20.1674 5.58083 20.3622 5.77578 20.5C5.97072 20.6377 6.2036 20.7117 6.44231 20.7115H19.9038C20.1079 20.7115 20.3035 20.7926 20.4478 20.9368C20.592 21.0811 20.6731 21.2768 20.6731 21.4808C20.6731 21.6848 20.592 21.8804 20.4478 22.0247C20.3035 22.169 20.1079 22.25 19.9038 22.25H6.44231C5.72826 22.25 5.04346 21.9663 4.53856 21.4614C4.03365 20.9565 3.75 20.2717 3.75 19.5577V4.94231C3.75 4.22826 4.03365 3.54346 4.53856 3.03856C5.04346 2.53365 5.72826 2.25 6.44231 2.25H17.9808C18.6948 2.25 19.3796 2.53365 19.8845 3.03856C20.3894 3.54346 20.6731 4.22826 20.6731 4.94231V18.4038C20.6731 18.8119 20.511 19.2032 20.2225 19.4917C19.934 19.7802 19.5426 19.9423 19.1346 19.9423ZM5.28846 4.94231V18.4038H19.1346V4.94231C19.1346 4.63629 19.013 4.3428 18.7967 4.12642C18.5803 3.91003 18.2868 3.78846 17.9808 3.78846H6.44231C6.13629 3.78846 5.8428 3.91003 5.62642 4.12642C5.41003 4.3428 5.28846 4.63629 5.28846 4.94231Z" fill="#D2AE83"/>
</svg>
