<svg width="24" height="24" viewBox="0 0 24 24" fill="none" xmlns="http://www.w3.org/2000/svg">
<path fill-rule="evenodd" clip-rule="evenodd" d="M19.9226 2.452C20.0413 2.80055 19.8549 3.17928 19.5064 3.29794L17.8919 3.84755L17.5204 5.33348H20.6155C20.6212 5.33341 20.6268 5.33341 20.6325 5.33348H21.3332C21.7013 5.33348 21.9998 5.63196 21.9998 6.00015C21.9998 6.36833 21.7013 6.66681 21.3332 6.66681H21.2247L19.7979 20.1606C19.7578 20.6595 19.5319 21.1254 19.1648 21.4661C18.7949 21.8093 18.309 22 17.8044 22H6.91662C5.98287 22 5.21071 21.614 4.68397 20.9773C4.30304 20.5169 4.06646 19.9464 3.96863 19.3331C2.75152 19.3131 2 18.1325 2 17C2 16.4666 2.16678 15.9224 2.47044 15.4939C2.16897 15.1832 2 14.767 2 14.3334C2 13.8914 2.17559 13.4675 2.48815 13.1549C2.72133 12.9217 3.0165 12.7648 3.33492 12.7001C3.36836 11.4092 3.92381 10.3848 4.81513 9.69287C5.71573 8.99376 6.91334 8.66679 8.16661 8.66679H11.0139L10.7813 6.66681H10.6666C10.2984 6.66681 9.99993 6.36833 9.99993 6.00015C9.99993 5.63196 10.2984 5.33348 10.6666 5.33348H11.3666C11.3727 5.3334 11.3788 5.3334 11.3849 5.33348H16.146L16.6864 3.17181C16.7414 2.95215 16.904 2.77538 17.1184 2.70241L19.0767 2.03575C19.4252 1.91709 19.804 2.10346 19.9226 2.452ZM16.6526 6.66681H12.1236L12.3471 8.58852C12.3543 8.65012 12.3528 8.71073 12.3436 8.76915C13.1559 8.91548 13.9064 9.22075 14.5191 9.69823C15.4076 10.3906 15.9622 11.4136 15.998 12.7C16.3165 12.7647 16.6118 12.9217 16.845 13.1549C17.1576 13.4675 17.3332 13.8914 17.3332 14.3334C17.3332 14.767 17.1642 15.1832 16.8628 15.4939C17.1664 15.9224 17.3332 16.4666 17.3332 17C17.3332 18.1325 16.5817 19.3131 15.3646 19.3331C15.2877 19.8149 15.1252 20.2703 14.8744 20.6667H17.8044C17.9726 20.6667 18.1346 20.6031 18.2579 20.4887C18.3812 20.3743 18.4567 20.2175 18.4692 20.0498L18.47 20.0396L19.884 6.66681H16.6815C16.6719 6.66702 16.6622 6.66702 16.6526 6.66681ZM15.3332 18C15.5702 18 15.9999 17.6987 15.9999 17C15.9999 16.3013 15.5702 16.0001 15.3332 16.0001H8.94275L7.92286 17.0199C7.92278 17.02 7.92295 17.0198 7.92286 17.0199C7.84553 17.0973 7.75346 17.1589 7.6524 17.2008C7.55122 17.2428 7.44278 17.2643 7.33329 17.2643C7.22379 17.2643 7.11535 17.2428 7.01417 17.2008C6.91311 17.1589 6.8213 17.0976 6.74397 17.0202C6.74388 17.0201 6.74406 17.0203 6.74397 17.0202L5.72382 16.0001H3.99998C3.76303 16.0001 3.33332 16.3013 3.33332 17C3.33332 17.6987 3.76303 18 3.99998 18H15.3332ZM5.32763 19.3334H14.0056C13.9273 19.6504 13.7937 19.9197 13.6219 20.1274C13.3502 20.4558 12.9557 20.6667 12.4166 20.6667H6.91662C6.37747 20.6667 5.98298 20.4558 5.71129 20.1274C5.53945 19.9197 5.40586 19.6504 5.32763 19.3334ZM5.86205 14.6667C6.12691 14.6669 6.38121 14.7721 6.5686 14.9592L7.33329 15.7239L8.09771 14.9595C8.28509 14.7723 8.53935 14.6669 8.80421 14.6667H15.6665C15.7549 14.6667 15.8397 14.6316 15.9022 14.5691C15.9648 14.5066 15.9999 14.4218 15.9999 14.3334C15.9999 14.245 15.9648 14.1602 15.9022 14.0977C15.8397 14.0352 15.7549 14.0001 15.6665 14.0001H3.66665C3.57825 14.0001 3.49346 14.0352 3.43095 14.0977C3.36844 14.1602 3.33332 14.245 3.33332 14.3334C3.33332 14.4218 3.36844 14.5066 3.43095 14.5691C3.49346 14.6316 3.57825 14.6667 3.66665 14.6667H5.86205ZM6.97954 16.0777C6.97945 16.0777 6.97963 16.0776 6.97954 16.0777ZM7.68703 16.0777C7.68694 16.0776 7.68712 16.0777 7.68703 16.0777ZM14.6625 12.6668C14.6207 11.8102 14.2554 11.1832 13.6995 10.7499C13.0894 10.2745 12.2039 10.0001 11.1666 10.0001H8.16661C7.12824 10.0001 6.24253 10.2727 5.63273 10.7461C5.07548 11.1787 4.70984 11.806 4.67022 12.6668H14.6625Z" fill="#D2AE83"/>
</svg>
